<?xml version="1.0" encoding="UTF-8" standalone="no"?>
<!DOCTYPE svg PUBLIC "-//W3C//DTD SVG 1.1//EN" "http://www.w3.org/Graphics/SVG/1.1/DTD/svg11.dtd">
<svg xmlns="http://www.w3.org/2000/svg" version="1.1" viewBox="0.00 0.00 1553.00 1350.00">
<path fill="#ffffff" d="
  M 1408.77 417.49
  Q 1408.24 416.57 1407.73 417.50
  C 1391.95 446.08 1375.41 474.40 1357.47 501.56
  Q 1195.52 746.64 1032.51 991.17
  A 0.59 0.59 0.0 0 1 1031.79 991.39
  Q 1031.25 991.16 1031.02 990.44
  Q 939.91 701.93 879.28 503.17
  Q 869.16 470.00 859.91 426.96
  C 859.41 424.64 858.82 420.38 857.84 417.16
  A 0.27 0.27 0.0 0 0 857.31 417.20
  Q 851.63 452.78 842.57 487.60
  Q 840.81 494.34 837.25 506.89
  Q 758.52 784.20 679.52 1061.62
  A 2.08 2.08 0.0 0 1 677.52 1063.13
  L 74.03 1063.13
  A 1.19 1.19 0.0 0 1 72.84 1061.94
  L 72.84 288.35
  A 1.48 1.47 90.0 0 1 74.31 286.87
  L 228.49 286.87
  A 1.99 1.98 -90.0 0 1 230.47 288.86
  L 230.47 918.48
  A 1.51 1.51 0.0 0 0 231.98 919.99
  L 609.75 919.99
  A 0.77 0.76 0.0 0 1 610.52 920.75
  L 610.56 1057.49
  Q 610.56 1058.53 611.55 1058.20
  Q 611.68 1058.16 611.86 1057.52
  Q 721.14 674.16 830.73 288.97
  Q 831.33 286.87 833.50 286.87
  L 884.96 286.87
  A 1.88 1.87 81.4 0 1 886.75 288.19
  L 1057.53 837.42
  A 1.22 1.22 0.0 0 0 1059.71 837.73
  L 1424.18 288.76
  A 4.24 4.24 0.0 0 1 1427.71 286.87
  L 1478.59 286.88
  A 1.82 1.82 0.0 0 1 1480.41 288.83
  L 1427.46 1061.27
  A 1.40 1.33 1.7 0 1 1426.07 1062.51
  L 1360.54 1062.51
  A 1.51 1.50 -88.0 0 1 1359.04 1060.90
  Q 1377.61 787.16 1396.46 512.99
  Q 1399.74 465.32 1408.73 418.40
  Q 1408.87 417.68 1408.77 417.49
  Z"
/>
</svg>
