<?xml version="1.0" encoding="UTF-8" standalone="no"?>
<!DOCTYPE svg PUBLIC "-//W3C//DTD SVG 1.1//EN" "http://www.w3.org/Graphics/SVG/1.1/DTD/svg11.dtd">
<svg xmlns="http://www.w3.org/2000/svg" version="1.1" viewBox="0.00 0.00 4491.00 465.00">
<path fill="#ffffff" d="
  M 1065.31 3.16
  Q 1145.23 13.84 1206.33 66.69
  Q 1207.09 67.34 1207.54 67.97
  A 1.24 1.23 51.1 0 1 1207.37 69.61
  L 1143.80 127.34
  A 0.92 0.91 43.7 0 1 1142.59 127.36
  C 1103.27 93.83 1055.86 78.86 1004.75 85.75
  C 938.94 94.61 880.04 139.75 866.58 206.10
  Q 861.22 232.54 867.29 260.91
  C 882.28 331.02 947.44 375.67 1016.00 380.35
  C 1062.93 383.55 1106.24 368.36 1142.15 338.34
  A 1.89 1.85 46.0 0 1 1144.60 338.41
  L 1207.93 395.88
  A 0.80 0.80 0.0 0 1 1207.91 397.08
  Q 1140.07 455.85 1051.39 463.50
  C 1041.45 464.35 1029.99 464.17 1019.19 464.15
  Q 1011.76 464.13 1006.33 463.74
  C 913.58 456.97 827.49 403.77 789.51 317.02
  C 757.98 244.99 769.74 162.47 817.43 100.43
  C 861.74 42.79 928.16 9.56 999.80 1.89
  Q 1008.36 0.97 1019.76 0.85
  C 1031.83 0.71 1042.20 0.44 1053.31 1.66
  Q 1057.61 2.13 1065.31 3.16
  Z"
/>
<path fill="#ffffff" d="
  M 1902.79 232.41
  A 250.67 231.92 0.0 0 1 1652.12 464.33
  A 250.67 231.92 0.0 0 1 1401.45 232.41
  A 250.67 231.92 0.0 0 1 1652.12 0.49
  A 250.67 231.92 0.0 0 1 1902.79 232.41
  Z
  M 1810.5098 232.2435
  A 158.41 148.19 -0.1 0 0 1651.8414 84.3302
  A 158.41 148.19 -0.1 0 0 1493.6902 232.7965
  A 158.41 148.19 -0.1 0 0 1652.3586 380.7098
  A 158.41 148.19 -0.1 0 0 1810.5098 232.2435
  Z"
/>
<path fill="#ffffff" d="
  M 3105.04 81.52
  Q 3090.58 108.01 3073.44 133.90
  Q 2981.18 273.34 2888.19 412.93
  A 0.35 0.35 0.0 0 1 2887.71 413.03
  Q 2887.37 412.81 2887.19 412.25
  Q 2843.96 274.50 2801.34 136.56
  C 2795.60 117.98 2791.04 99.33 2787.19 80.39
  A 0.14 0.14 0.0 0 0 2786.91 80.40
  Q 2784.24 101.36 2778.48 121.73
  Q 2731.55 287.62 2684.28 453.63
  A 1.57 1.56 -81.8 0 1 2682.78 454.76
  L 2645.23 454.75
  A 1.01 1.00 8.0 0 1 2644.26 453.47
  L 2771.66 5.77
  A 0.59 0.58 -82.1 0 1 2772.22 5.34
  L 2803.23 5.33
  A 1.01 1.00 81.4 0 1 2804.19 6.04
  L 2903.03 323.69
  A 0.38 0.38 0.0 0 0 2903.71 323.79
  L 3114.82 5.98
  A 1.47 1.45 16.7 0 1 3116.03 5.34
  L 3147.03 5.33
  A 0.42 0.42 0.0 0 1 3147.45 5.78
  L 3116.75 453.79
  A 1.05 1.04 -87.9 0 1 3115.71 454.76
  L 3077.75 454.75
  A 0.82 0.81 -89.3 0 1 3076.94 453.91
  Q 3077.07 449.25 3077.33 445.50
  Q 3088.08 288.12 3099.02 130.75
  Q 3100.69 106.68 3105.53 81.70
  Q 3105.85 80.03 3105.04 81.52
  Z"
/>
<path fill="#ffffff" d="
  M 3497.20 210.24
  L 3491.04 245.08
  A 0.53 0.53 0.0 0 1 3490.52 245.52
  L 3251.69 245.52
  A 0.53 0.53 0.0 0 0 3251.17 245.96
  L 3220.84 417.85
  A 0.53 0.53 0.0 0 0 3221.36 418.47
  L 3476.50 418.47
  A 0.53 0.53 0.0 0 1 3477.02 419.09
  L 3470.80 454.32
  A 0.53 0.53 0.0 0 1 3470.28 454.76
  L 3175.14 454.76
  A 0.53 0.53 0.0 0 1 3174.62 454.14
  L 3253.78 5.77
  A 0.53 0.53 0.0 0 1 3254.30 5.33
  L 3549.44 5.33
  A 0.53 0.53 0.0 0 1 3549.96 5.95
  L 3543.80 40.81
  A 0.53 0.53 0.0 0 1 3543.28 41.25
  L 3287.78 41.25
  A 0.53 0.53 0.0 0 0 3287.26 41.69
  L 3257.74 209.00
  A 0.53 0.53 0.0 0 0 3258.26 209.62
  L 3496.68 209.62
  A 0.53 0.53 0.0 0 1 3497.20 210.24
  Z"
/>
<path fill="#ffffff" d="
  M 3524.36 453.51
  L 3603.38 5.87
  Q 3603.47 5.40 3603.95 5.40
  Q 3683.74 5.20 3763.49 5.37
  Q 3776.65 5.40 3783.49 5.79
  C 3829.42 8.43 3877.37 22.47 3914.02 51.27
  C 3950.62 80.05 3972.68 121.08 3976.28 167.95
  Q 3978.69 199.27 3972.54 232.50
  C 3946.27 374.39 3817.79 456.58 3679.48 454.36
  C 3678.20 454.34 3677.01 454.76 3675.83 454.76
  Q 3616.41 454.75 3557.00 454.76
  C 3555.77 454.76 3554.42 454.32 3552.99 454.33
  Q 3539.70 454.43 3525.06 454.34
  Q 3524.22 454.33 3524.36 453.51
  Z
  M 3934.87 221.27
  C 3937.73 201.84 3937.41 181.18 3934.04 162.52
  C 3928.27 130.60 3912.07 101.79 3886.90 81.49
  C 3853.01 54.16 3807.17 42.06 3764.03 41.41
  Q 3728.67 40.87 3637.33 41.40
  Q 3636.93 41.41 3636.86 41.80
  L 3570.52 417.51
  Q 3570.43 418.02 3570.95 418.00
  C 3573.13 417.91 3575.22 418.50 3577.18 418.50
  Q 3604.27 418.41 3631.36 418.51
  C 3634.38 418.53 3638.35 419.06 3641.90 418.88
  C 3657.67 418.07 3673.60 418.44 3689.40 418.48
  C 3690.59 418.48 3691.77 418.03 3692.75 418.03
  C 3753.03 418.53 3812.57 399.08 3859.07 360.34
  C 3900.98 325.42 3926.88 275.38 3934.87 221.27
  Z"
/>
<path fill="#ffffff" d="
  M 4069.53 5.34
  L 4107.97 5.33
  A 0.68 0.68 0.0 0 1 4108.64 6.13
  L 4029.52 454.20
  A 0.68 0.68 0.0 0 1 4028.85 454.76
  L 3990.43 454.76
  A 0.68 0.68 0.0 0 1 3989.76 453.96
  L 4068.86 5.90
  A 0.68 0.68 0.0 0 1 4069.53 5.34
  Z"
/>
<path fill="#ffffff" d="
  M 4420.10 330.13
  L 4183.42 330.13
  A 0.94 0.94 0.0 0 0 4182.61 330.60
  L 4111.75 454.29
  A 0.94 0.94 0.0 0 1 4110.94 454.76
  L 4070.63 454.75
  A 0.94 0.94 0.0 0 1 4069.82 453.34
  L 4326.16 5.80
  A 0.94 0.94 0.0 0 1 4326.97 5.33
  L 4391.08 5.34
  A 0.94 0.94 0.0 0 1 4392.00 6.08
  L 4490.44 453.62
  A 0.94 0.94 0.0 0 1 4489.52 454.76
  L 4448.99 454.76
  A 0.94 0.94 0.0 0 1 4448.07 454.02
  L 4421.02 330.87
  A 0.94 0.94 0.0 0 0 4420.10 330.13
  Z
  M 4412.30 294.24
  A 0.56 0.56 0.0 0 0 4412.85 293.56
  L 4355.20 31.27
  A 0.56 0.56 0.0 0 0 4354.17 31.11
  L 4203.92 293.40
  A 0.56 0.56 0.0 0 0 4204.41 294.24
  L 4412.30 294.24
  Z"
/>
<path fill="#ffffff" d="
  M 93.32 373.49
  L 312.00 373.48
  A 0.57 0.57 0.0 0 1 312.57 374.05
  L 312.52 456.67
  A 0.57 0.57 0.0 0 1 311.95 457.24
  L 1.41 457.24
  A 0.57 0.57 0.0 0 1 0.84 456.67
  L 0.84 8.33
  A 0.57 0.57 0.0 0 1 1.41 7.76
  L 92.18 7.76
  A 0.57 0.57 0.0 0 1 92.75 8.33
  L 92.75 372.92
  A 0.57 0.57 0.0 0 0 93.32 373.49
  Z"
/>
<path fill="#ffffff" d="
  M 405.67 423.83
  C 365.78 392.51 343.25 347.03 340.77 296.48
  C 340.67 294.33 340.34 292.12 340.34 290.50
  Q 340.28 149.65 340.34 8.66
  A 0.90 0.89 -90.0 0 1 341.23 7.76
  L 431.75 7.76
  A 0.94 0.94 0.0 0 1 432.69 8.70
  Q 432.78 147.07 432.70 285.25
  C 432.67 337.41 464.24 374.70 516.65 379.75
  Q 526.18 380.67 534.30 380.56
  Q 543.21 380.43 551.88 379.29
  C 593.83 373.80 623.95 346.15 630.20 303.84
  C 631.78 293.16 631.41 279.82 631.23 269.00
  C 631.18 266.40 631.71 263.84 631.71 261.66
  Q 631.71 135.52 631.71 8.81
  A 1.05 1.05 0.0 0 1 632.76 7.76
  L 723.01 7.76
  Q 723.61 7.76 723.59 8.37
  C 723.25 16.28 723.97 25.03 723.98 31.91
  Q 724.01 143.96 724.05 256.00
  C 724.05 257.08 723.54 258.15 723.54 259.14
  Q 723.50 275.13 723.53 291.12
  Q 723.54 301.63 722.42 309.31
  C 712.76 375.07 674.20 426.98 611.21 450.79
  Q 579.85 462.64 546.23 464.13
  Q 540.08 464.41 524.00 464.16
  Q 512.01 463.98 504.05 463.05
  C 468.41 458.88 434.03 446.11 405.67 423.83
  Z"
/>
<rect fill="#ffffff" x="1255.13" y="7.76" width="91.88" height="449.48" rx="0.35"/>
<path fill="#ffffff" d="
  M 2268.36 374.30
  L 2268.38 456.42
  A 0.82 0.82 0.0 0 1 2267.56 457.24
  L 1957.07 457.24
  A 0.82 0.82 0.0 0 1 1956.25 456.42
  L 1956.25 8.58
  A 0.82 0.82 0.0 0 1 1957.07 7.76
  L 2047.74 7.76
  A 0.82 0.82 0.0 0 1 2048.56 8.58
  L 2048.56 372.66
  A 0.82 0.82 0.0 0 0 2049.38 373.48
  L 2267.54 373.48
  A 0.82 0.82 0.0 0 1 2268.36 374.30
  Z"
/>
<path fill="#ffffff" d="
  M 2401.54 373.49
  L 2620.57 373.49
  A 0.41 0.41 0.0 0 1 2620.98 373.90
  L 2620.98 456.83
  A 0.41 0.41 0.0 0 1 2620.57 457.24
  L 2309.66 457.24
  A 0.41 0.41 0.0 0 1 2309.25 456.83
  L 2309.25 8.17
  A 0.41 0.41 0.0 0 1 2309.66 7.76
  L 2620.57 7.76
  A 0.41 0.41 0.0 0 1 2620.98 8.17
  L 2620.98 91.10
  A 0.41 0.41 0.0 0 1 2620.57 91.51
  L 2401.54 91.52
  A 0.41 0.41 0.0 0 0 2401.13 91.93
  L 2401.13 187.95
  A 0.41 0.41 0.0 0 0 2401.54 188.36
  L 2602.97 188.40
  A 0.41 0.41 0.0 0 1 2603.38 188.81
  L 2603.38 271.72
  A 0.41 0.41 0.0 0 1 2602.97 272.13
  L 2401.54 272.13
  A 0.41 0.41 0.0 0 0 2401.13 272.54
  L 2401.13 373.08
  A 0.41 0.41 0.0 0 0 2401.54 373.49
  Z"
/>
</svg>
