<?xml version="1.0" encoding="UTF-8" standalone="no"?>
<!DOCTYPE svg PUBLIC "-//W3C//DTD SVG 1.1//EN" "http://www.w3.org/Graphics/SVG/1.1/DTD/svg11.dtd">
<svg xmlns="http://www.w3.org/2000/svg" version="1.1" viewBox="0.00 0.00 1448.00 1448.00">
<path stroke="#808080" stroke-width="2.00" fill="none" stroke-linecap="butt" vector-effect="non-scaling-stroke" d="
  M 616.41 1037.81
  Q 615.45 1041.21 615.45 1037.67
  L 615.45 938.14
  Q 615.45 936.98 614.29 936.98
  L 334.86 936.98
  A 0.62 0.62 0.0 0 1 334.24 936.36
  L 334.24 470.25
  A 1.49 1.48 0.0 0 0 332.75 468.77
  L 218.53 468.77
  Q 217.26 468.77 217.26 470.04
  L 217.26 1041.82
  A 1.55 1.55 0.0 0 0 218.81 1043.37
  L 664.98 1042.96
  A 1.38 1.37 -81.8 0 0 666.30 1041.97
  Q 721.54 847.97 776.62 653.86
  Q 776.64 653.79 781.14 638.30
  Q 791.55 602.47 797.76 565.63
  A 0.10 0.10 0.0 0 1 797.96 565.63
  Q 805.40 601.44 816.14 636.46
  Q 870.32 813.15 925.82 989.62
  A 0.86 0.86 0.0 0 0 927.36 989.84
  Q 1043.03 816.18 1158.30 641.81
  Q 1185.25 601.04 1204.53 565.98
  Q 1204.59 565.86 1204.72 565.86
  Q 1204.81 565.85 1204.86 565.84
  A 0.20 0.20 0.0 0 1 1205.11 566.07
  Q 1198.76 599.67 1196.40 633.75
  Q 1182.32 836.99 1168.47 1041.13
  A 1.54 1.53 -88.1 0 0 1170.00 1042.77
  L 1217.66 1042.77
  A 1.80 1.79 -88.1 0 0 1219.45 1041.09
  L 1258.62 469.57
  Q 1258.67 468.71 1257.82 468.72
  L 1218.48 468.80
  A 1.72 1.71 -73.2 0 0 1217.05 469.57
  L 947.08 876.32
  A 0.69 0.66 53.8 0 1 945.88 876.11
  L 819.40 469.23
  A 0.65 0.64 -8.5 0 0 818.78 468.78
  L 779.49 468.77
  Q 778.23 468.77 777.88 469.99
  L 616.41 1037.81"
/>
<path fill="#000000" d="
  M 138.59 0.00
  L 1309.52 0.00
  Q 1356.70 2.34 1392.22 30.30
  Q 1443.84 70.94 1448.00 138.36
  L 1448.00 1308.28
  C 1444.10 1382.07 1388.40 1439.93 1314.99 1446.07
  Q 1308.37 1446.63 1295.01 1446.62
  Q 719.25 1446.57 143.50 1446.61
  C 112.04 1446.62 80.53 1435.82 55.67 1416.13
  Q 4.33 1375.48 0.00 1308.01
  L 0.00 138.21
  Q 4.44 68.76 58.63 28.13
  Q 93.25 2.16 138.59 0.00
  Z
  M 616.41 1037.81
  Q 615.45 1041.21 615.45 1037.67
  L 615.45 938.14
  Q 615.45 936.98 614.29 936.98
  L 334.86 936.98
  A 0.62 0.62 0.0 0 1 334.24 936.36
  L 334.24 470.25
  A 1.49 1.48 0.0 0 0 332.75 468.77
  L 218.53 468.77
  Q 217.26 468.77 217.26 470.04
  L 217.26 1041.82
  A 1.55 1.55 0.0 0 0 218.81 1043.37
  L 664.98 1042.96
  A 1.38 1.37 -81.8 0 0 666.30 1041.97
  Q 721.54 847.97 776.62 653.86
  Q 776.64 653.79 781.14 638.30
  Q 791.55 602.47 797.76 565.63
  A 0.10 0.10 0.0 0 1 797.96 565.63
  Q 805.40 601.44 816.14 636.46
  Q 870.32 813.15 925.82 989.62
  A 0.86 0.86 0.0 0 0 927.36 989.84
  Q 1043.03 816.18 1158.30 641.81
  Q 1185.25 601.04 1204.53 565.98
  Q 1204.59 565.86 1204.72 565.86
  Q 1204.81 565.85 1204.86 565.84
  A 0.20 0.20 0.0 0 1 1205.11 566.07
  Q 1198.76 599.67 1196.40 633.75
  Q 1182.32 836.99 1168.47 1041.13
  A 1.54 1.53 -88.1 0 0 1170.00 1042.77
  L 1217.66 1042.77
  A 1.80 1.79 -88.1 0 0 1219.45 1041.09
  L 1258.62 469.57
  Q 1258.67 468.71 1257.82 468.72
  L 1218.48 468.80
  A 1.72 1.71 -73.2 0 0 1217.05 469.57
  L 947.08 876.32
  A 0.69 0.66 53.8 0 1 945.88 876.11
  L 819.40 469.23
  A 0.65 0.64 -8.5 0 0 818.78 468.78
  L 779.49 468.77
  Q 778.23 468.77 777.88 469.99
  L 616.41 1037.81
  Z"
/>
<path fill="#ffffff" d="
  M 616.41 1037.81
  L 777.88 469.99
  Q 778.23 468.77 779.49 468.77
  L 818.78 468.78
  A 0.65 0.64 -8.5 0 1 819.40 469.23
  L 945.88 876.11
  A 0.69 0.66 53.8 0 0 947.08 876.32
  L 1217.05 469.57
  A 1.72 1.71 -73.2 0 1 1218.48 468.80
  L 1257.82 468.72
  Q 1258.67 468.71 1258.62 469.57
  L 1219.45 1041.09
  A 1.80 1.79 -88.1 0 1 1217.66 1042.77
  L 1170.00 1042.77
  A 1.54 1.53 -88.1 0 1 1168.47 1041.13
  Q 1182.32 836.99 1196.40 633.75
  Q 1198.76 599.67 1205.11 566.07
  A 0.20 0.20 0.0 0 0 1204.86 565.84
  Q 1204.81 565.85 1204.72 565.86
  Q 1204.59 565.86 1204.53 565.98
  Q 1185.25 601.04 1158.30 641.81
  Q 1043.03 816.18 927.36 989.84
  A 0.86 0.86 0.0 0 1 925.82 989.62
  Q 870.32 813.15 816.14 636.46
  Q 805.40 601.44 797.96 565.63
  A 0.10 0.10 0.0 0 0 797.76 565.63
  Q 791.55 602.47 781.14 638.30
  Q 776.64 653.79 776.62 653.86
  Q 721.54 847.97 666.30 1041.97
  A 1.38 1.37 -81.8 0 1 664.98 1042.96
  L 218.81 1043.37
  A 1.55 1.55 0.0 0 1 217.26 1041.82
  L 217.26 470.04
  Q 217.26 468.77 218.53 468.77
  L 332.75 468.77
  A 1.49 1.48 -0.0 0 1 334.24 470.25
  L 334.24 936.36
  A 0.62 0.62 0.0 0 0 334.86 936.98
  L 614.29 936.98
  Q 615.45 936.98 615.45 938.14
  L 615.45 1037.67
  Q 615.45 1041.21 616.41 1037.81
  Z"
/>
</svg>
